<?xml version="1.0" encoding="UTF-8" standalone="no"?>
<svg width="26px" height="25px" viewBox="0 0 26 25" version="1.1" xmlns="http://www.w3.org/2000/svg" xmlns:xlink="http://www.w3.org/1999/xlink" xmlns:sketch="http://www.bohemiancoding.com/sketch/ns">
    <!-- Generator: Sketch 3.2.2 (9983) - http://www.bohemiancoding.com/sketch -->
    <title>circle-social_facebook_outline_stroke</title>
    <desc>Created with Sketch.</desc>
    <defs></defs>
    <g id="Page-1" stroke="none" stroke-width="1" fill="none" fill-rule="evenodd" sketch:type="MSPage">
        <g id="Desktop" sketch:type="MSArtboardGroup" transform="translate(-818.000000, -1150.000000)" fill="#FFFFFF">
            <path d="M831.150641,1175 C838.061792,1175 843.664387,1169.40356 843.664387,1162.5 C843.664387,1155.59644 838.061792,1150 831.150641,1150 C824.239489,1150 818.636894,1155.59644 818.636894,1162.5 C818.636894,1169.40356 824.239489,1175 831.150641,1175 Z M831.150641,1173.86364 C837.433506,1173.86364 842.526774,1168.77596 842.526774,1162.5 C842.526774,1156.22404 837.433506,1151.13636 831.150641,1151.13636 C824.867775,1151.13636 819.774507,1156.22404 819.774507,1162.5 C819.774507,1168.77596 824.867775,1173.86364 831.150641,1173.86364 Z M829.257821,1169.7143 L829.257821,1162.49957 L827.789986,1162.49957 L827.789986,1160.10807 L829.257821,1160.10807 L829.257821,1158.66183 C829.257821,1156.7111 829.8417,1155.30442 831.979928,1155.30442 L834.523662,1155.30442 L834.523662,1157.69102 L832.732484,1157.69102 C831.835516,1157.69102 831.631116,1158.28641 831.631116,1158.9099 L831.631116,1160.10806 L834.39146,1160.10806 L834.014692,1162.49957 L831.631116,1162.49957 L831.631116,1169.7143 L829.257821,1169.7143 Z" id="circle-social_facebook_outline_stroke" sketch:type="MSShapeGroup"></path>
        </g>
    </g>
</svg>