<?xml version="1.0" encoding="UTF-8" standalone="no"?>
<svg width="26px" height="25px" viewBox="0 0 26 25" version="1.1" xmlns="http://www.w3.org/2000/svg" xmlns:xlink="http://www.w3.org/1999/xlink" xmlns:sketch="http://www.bohemiancoding.com/sketch/ns">
    <!-- Generator: Sketch 3.2.2 (9983) - http://www.bohemiancoding.com/sketch -->
    <title>circle-social_google-plus_outline_stroke</title>
    <desc>Created with Sketch.</desc>
    <defs></defs>
    <g id="Page-1" stroke="none" stroke-width="1" fill="none" fill-rule="evenodd" sketch:type="MSPage">
        <g id="Desktop" sketch:type="MSArtboardGroup" transform="translate(-875.000000, -1150.000000)" fill="#FFFFFF">
            <path d="M891.638447,1162.98077 L889.712726,1162.98077 L889.712726,1162.01923 L891.638447,1162.01923 L891.638447,1160.09351 L892.599985,1160.09351 L892.599985,1162.01923 L894.525706,1162.01923 L894.525706,1162.98077 L892.599985,1162.98077 L892.599985,1164.90649 L891.638447,1164.90649 L891.638447,1162.98077 Z M887.787534,1175 C894.698686,1175 900.301281,1169.40356 900.301281,1162.5 C900.301281,1155.59644 894.698686,1150 887.787534,1150 C880.876382,1150 875.273787,1155.59644 875.273787,1162.5 C875.273787,1169.40356 880.876382,1175 887.787534,1175 Z M887.787534,1173.86364 C894.0704,1173.86364 899.163668,1168.77596 899.163668,1162.5 C899.163668,1156.22404 894.0704,1151.13636 887.787534,1151.13636 C881.504669,1151.13636 876.411401,1156.22404 876.411401,1162.5 C876.411401,1168.77596 881.504669,1173.86364 887.787534,1173.86364 Z M887.684323,1156.88948 C888.093194,1157.22727 888.947206,1157.93777 888.947206,1159.28854 C888.947206,1160.60346 888.200044,1161.22535 887.453143,1161.8114 C887.221962,1162.04245 886.954774,1162.29136 886.954774,1162.68232 C886.954774,1163.07328 887.221962,1163.28662 887.417135,1163.44626 L888.057839,1163.94343 C888.840748,1164.60076 889.551902,1165.20531 889.551902,1166.43162 C889.551902,1168.10141 887.933116,1169.7897 884.873496,1169.7897 C882.294633,1169.7897 881.049363,1168.56378 881.049363,1167.2486 C881.049363,1166.60886 881.36965,1165.70287 882.419486,1165.08073 C883.522029,1164.40541 885.016614,1164.31731 885.816614,1164.26349 C885.56756,1163.94343 885.28302,1163.60551 885.28302,1163.0553 C885.28302,1162.75322 885.371996,1162.5752 885.460972,1162.36213 C885.264886,1162.37972 885.069713,1162.39796 884.8915,1162.39796 C883.006309,1162.39796 881.93899,1160.99364 881.93899,1159.60808 C881.93899,1158.7911 882.312376,1157.88434 883.077281,1157.22701 C884.09137,1156.39218 885.300763,1156.25 886.261232,1156.25 L889.925418,1156.25 L888.786997,1156.88922 L887.684323,1156.88922 L887.684323,1156.88948 Z M886.937553,1161.40323 C887.346163,1160.99377 887.38191,1160.42558 887.38191,1160.10551 C887.38191,1158.82668 886.617135,1156.83631 885.140554,1156.83631 C884.678063,1156.83631 884.180085,1157.0675 883.895154,1157.42327 C883.592871,1157.79637 883.503634,1158.27556 883.503634,1158.73767 C883.503634,1159.92788 884.197437,1161.90066 885.727247,1161.90066 C886.171995,1161.90053 886.65236,1161.6872 886.937553,1161.40323 Z M886.42118,1164.77891 C886.278845,1164.76079 886.189869,1164.76079 886.012308,1164.76079 C885.8521,1164.76079 884.89137,1164.7965 884.144338,1165.04554 C883.753079,1165.18772 882.614659,1165.61373 882.614659,1166.87549 C882.614659,1168.13699 883.841925,1169.04284 885.745381,1169.04284 C887.453143,1169.04284 888.360122,1168.22586 888.360122,1167.1244 C888.360122,1166.2179 887.773299,1165.73858 886.42118,1164.77891 Z" id="circle-social_google-plus_outline_stroke" sketch:type="MSShapeGroup"></path>
        </g>
    </g>
</svg>