<?xml version="1.0" encoding="UTF-8" standalone="no"?>
<svg width="168px" height="43px" viewBox="0 0 168 43" version="1.1" xmlns="http://www.w3.org/2000/svg" xmlns:xlink="http://www.w3.org/1999/xlink" xmlns:sketch="http://www.bohemiancoding.com/sketch/ns">
    <!-- Generator: Sketch 3.2.2 (9983) - http://www.bohemiancoding.com/sketch -->
    <title>MICA_logo_solid_K</title>
    <desc>Created with Sketch.</desc>
    <defs></defs>
    <g id="Page-1" stroke="none" stroke-width="1" fill="none" fill-rule="evenodd" sketch:type="MSPage">
        <g id="Desktop" sketch:type="MSArtboardGroup" transform="translate(-43.000000, -14.000000)" fill="#FFFFFF">
            <g id="MICA_logo_solid_K" sketch:type="MSLayerGroup" transform="translate(43.000000, 14.000000)">
                <path d="M26.2980519,35.7280575 L26.2980519,28.6414598 L29.274121,28.6414598 L29.274121,16.2900805 C28.3624669,19.5694483 27.2910432,22.8493103 26.2980519,26.0901264 C25.2663285,29.2904138 24.4345591,32.5282644 23.4435043,35.7280575 L18.2064553,35.7280575 C17.2158847,32.9325632 16.3429625,30.1395402 15.3906398,27.3450345 C14.2010836,23.8224943 13.1683919,20.1773793 11.8219712,16.734908 L11.8219712,28.6414598 L15.0730375,28.6414598 L15.0730375,35.7280575 L0,35.7280575 L0,28.6414598 L3.09420173,28.6414598 L3.09420173,14.3862184 L0,14.3862184 L0,7.34064368 L20.9452911,7.34064368 C21.6976599,9.89197701 22.6490144,12.3612644 23.3631354,14.9125977 C24.1571412,12.3217241 25.148196,9.85144828 26.1005187,7.34064368 L44.2682421,7.34064368 L44.2682421,14.3862184 L41.1735562,14.3862184 L41.1735562,28.6414598 L44.2682421,28.6414598 L44.2682421,35.7280575 L26.2980519,35.7280575" id="Fill-1" sketch:type="MSShapeGroup"></path>
                <path d="M60.0554006,35.7280575 L60.0554006,28.6414598 L63.1496023,28.6414598 L63.1496023,14.3862184 L60.0554006,14.3862184 L60.0554006,7.34064368 L78.5412104,7.34064368 L78.5412104,14.3862184 L75.4470086,14.3862184 L75.4470086,28.6414598 L78.5412104,28.6414598 L78.5412104,35.7280575 L60.0554006,35.7280575" id="Fill-2" sketch:type="MSShapeGroup"></path>
                <path d="M114.716888,20.217908 C114.756588,17.626046 113.962582,13.9008621 110.709579,13.9008621 C106.505222,13.9008621 106.26702,18.5577126 106.26702,21.7575057 C106.26702,24.8747586 106.743908,29.6531954 110.790916,29.6531954 C114.517418,29.6531954 115.153107,26.4944253 114.83502,23.3766782 L122.77072,23.3766782 L122.77072,24.7126437 C122.690352,33.0551379 116.381395,36.2534483 108.926939,36.2534483 C99.6036657,36.2534483 93.2177291,31.5570575 93.2177291,21.5953908 C93.2177291,13.1718391 98.3351931,6.77274713 106.864945,6.77274713 C110.82868,6.77274713 112.931827,8.02864368 115.233476,11.2684713 L115.311908,7.34064368 L122.846248,7.34064368 L122.846248,20.5826667 L114.716888,20.5826667 L114.716888,20.217908 Z" id="Fill-3" sketch:type="MSShapeGroup"></path>
                <path d="M148.592369,16.4106782 C148.155666,18.3145402 147.601314,20.217908 147.043573,22.0812414 L150.140196,22.0812414 C149.625061,20.1773793 149.028104,18.355069 148.592369,16.4106782 L148.592369,16.4106782 Z M149.228058,35.7280575 L149.228058,28.6414598 L151.885072,28.6414598 C151.56747,27.5466897 151.249383,26.4538966 150.97245,25.3611034 L146.251988,25.3611034 C145.975055,26.4538966 145.657452,27.5466897 145.339366,28.6414598 L148.195366,28.6414598 L148.195366,35.7280575 L135.543078,35.7280575 L135.543078,28.6414598 L138.001591,28.6414598 C140.342939,21.5538736 142.602951,14.4257586 144.984,7.34064368 L157.597556,7.34064368 C159.778167,14.4672759 162.039147,21.5953908 164.419228,28.6414598 L167.751147,28.6414598 L167.751147,35.7280575 L149.228058,35.7280575 L149.228058,35.7280575 Z" id="Fill-4" sketch:type="MSShapeGroup"></path>
                <path d="M51.4438271,0.208574713 L52.315781,0.208574713 L52.315781,42.8843448 L51.4438271,42.8843448 L51.4438271,0.208574713 Z" id="Fill-5" sketch:type="MSShapeGroup"></path>
                <path d="M85.4306628,0.208574713 L86.3026167,0.208574713 L86.3026167,42.8843448 L85.4306628,42.8843448 L85.4306628,0.208574713 Z" id="Fill-6" sketch:type="MSShapeGroup"></path>
                <path d="M123.80438,42.7172874 L124.631793,43 L138.672138,0.359321839 L137.844726,0.0761149425 L123.80438,42.7172874" id="Fill-7" sketch:type="MSShapeGroup"></path>
            </g>
        </g>
    </g>
</svg>