<?xml version="1.0" encoding="UTF-8" standalone="no"?>
<svg width="25px" height="25px" viewBox="0 0 25 25" version="1.1" xmlns="http://www.w3.org/2000/svg" xmlns:xlink="http://www.w3.org/1999/xlink" xmlns:sketch="http://www.bohemiancoding.com/sketch/ns">
    <!-- Generator: Sketch 3.2.2 (9983) - http://www.bohemiancoding.com/sketch -->
    <title>circle-social_pinterest_outline_stroke</title>
    <desc>Created with Sketch.</desc>
    <defs></defs>
    <g id="Page-1" stroke="none" stroke-width="1" fill="none" fill-rule="evenodd" sketch:type="MSPage">
        <g id="Desktop" sketch:type="MSArtboardGroup" transform="translate(-931.000000, -1150.000000)" fill="#FFFFFF">
            <path d="M943.5,1175 C950.40356,1175 956,1169.40356 956,1162.5 C956,1155.59644 950.40356,1150 943.5,1150 C936.59644,1150 931,1155.59644 931,1162.5 C931,1169.40356 936.59644,1175 943.5,1175 Z M943.5,1173.86364 C949.775963,1173.86364 954.863636,1168.77596 954.863636,1162.5 C954.863636,1156.22404 949.775963,1151.13636 943.5,1151.13636 C937.224037,1151.13636 932.136364,1156.22404 932.136364,1162.5 C932.136364,1168.77596 937.224037,1173.86364 943.5,1173.86364 Z M944.649772,1166.28517 C947.402109,1166.28517 949.269231,1163.72377 949.269231,1160.29513 C949.269231,1157.70329 947.11804,1155.28846 943.849472,1155.28846 C939.78183,1155.28846 937.730769,1158.26563 937.730769,1160.74823 C937.730769,1162.25147 938.287863,1163.58885 939.484019,1164.0873 C939.679983,1164.16898 939.855578,1164.08993 939.912637,1163.86858 C939.951658,1163.71513 940.04602,1163.32804 940.087005,1163.16707 C940.144432,1162.94785 940.122345,1162.87106 939.964052,1162.6799 C939.619488,1162.26425 939.399596,1161.72722 939.399596,1160.9657 C939.399596,1158.75719 941.017498,1156.78005 943.614486,1156.78005 C945.912927,1156.78005 947.176694,1158.21377 947.176694,1160.1294 C947.176694,1162.64933 946.084349,1164.77616 944.462275,1164.77616 C943.566262,1164.77616 942.8964,1164.02003 943.110894,1163.09279 C943.367721,1161.98565 943.866896,1160.79032 943.866896,1159.9911 C943.866896,1159.27606 943.490797,1158.6789 942.712093,1158.6789 C941.796325,1158.6789 941.060937,1159.64623 941.060937,1160.9414 C941.060937,1161.7663 941.334452,1162.32438 941.334452,1162.32438 C941.334452,1162.32438 940.397333,1166.37724 940.232782,1167.08677 C940.083569,1167.73291 940.061236,1168.44307 940.082219,1169.04324 C940.144923,1169.58165 940.666431,1170.02009 941.118855,1169.42945 C941.436913,1168.91045 941.7789,1168.25504 941.955845,1167.59812 C942.061374,1167.20941 942.55834,1165.19582 942.55834,1165.19582 C942.856152,1165.77507 943.725537,1166.28517 944.649772,1166.28517 Z" id="circle-social_pinterest_outline_stroke" sketch:type="MSShapeGroup"></path>
        </g>
    </g>
</svg>