<?xml version="1.0" encoding="UTF-8" standalone="no"?>
<svg width="26px" height="25px" viewBox="0 0 26 25" version="1.1" xmlns="http://www.w3.org/2000/svg" xmlns:xlink="http://www.w3.org/1999/xlink" xmlns:sketch="http://www.bohemiancoding.com/sketch/ns">
    <!-- Generator: Sketch 3.2.2 (9983) - http://www.bohemiancoding.com/sketch -->
    <title>circle-social_twitter_outline_stroke</title>
    <desc>Created with Sketch.</desc>
    <defs></defs>
    <g id="Page-1" stroke="none" stroke-width="1" fill="none" fill-rule="evenodd" sketch:type="MSPage">
        <g id="Desktop" sketch:type="MSArtboardGroup" transform="translate(-762.000000, -1150.000000)" fill="#FFFFFF">
            <path d="M774.513747,1175 C781.424899,1175 787.027494,1169.40356 787.027494,1162.5 C787.027494,1155.59644 781.424899,1150 774.513747,1150 C767.602595,1150 762,1155.59644 762,1162.5 C762,1169.40356 767.602595,1175 774.513747,1175 Z M774.513747,1173.86364 C780.796612,1173.86364 785.889881,1168.77596 785.889881,1162.5 C785.889881,1156.22404 780.796612,1151.13636 774.513747,1151.13636 C768.230882,1151.13636 763.137613,1156.22404 763.137613,1162.5 C763.137613,1168.77596 768.230882,1173.86364 774.513747,1173.86364 Z M779.123869,1157.68196 C778.619584,1157.10925 777.901026,1156.74436 777.105787,1156.73114 C775.578917,1156.70575 774.340913,1157.99455 774.340913,1159.60963 C774.340913,1159.83885 774.365372,1160.06237 774.41254,1160.27695 C772.114688,1160.12806 770.077402,1158.93282 768.713799,1157.13113 C768.475806,1157.56286 768.339426,1158.06745 768.339426,1158.60798 C768.339426,1159.63125 768.827539,1160.53939 769.569412,1161.07559 C769.116202,1161.0556 768.689878,1160.91856 768.317122,1160.69373 C768.316853,1160.70602 768.316853,1160.71831 768.316853,1160.73082 C768.316853,1162.15981 769.2699,1163.35863 770.534722,1163.63789 C770.302727,1163.70356 770.058468,1163.73792 769.806326,1163.73625 C769.628168,1163.73507 769.45493,1163.71534 769.286139,1163.6799 C769.637939,1164.85182 770.658974,1165.70699 771.86888,1165.73526 C770.922638,1166.51987 769.730521,1166.98716 768.435108,1166.98449 C768.211939,1166.98403 767.991871,1166.96963 767.775576,1166.94192 C768.99916,1167.78055 770.452449,1168.26882 772.013818,1168.26923 C777.099318,1168.27056 779.880364,1163.8498 779.880364,1160.01532 C779.880364,1159.88952 779.877601,1159.76438 779.872345,1159.63985 C780.412544,1159.23778 780.881252,1158.73366 781.251918,1158.15801 C780.756124,1158.38126 780.223202,1158.52953 779.664001,1158.59172 C780.234791,1158.24082 780.673244,1157.67921 780.879634,1157.00573 C780.345365,1157.32937 779.753686,1157.56146 779.123869,1157.68196 Z" id="circle-social_twitter_outline_stroke" sketch:type="MSShapeGroup"></path>
        </g>
    </g>
</svg>